<?xml version="1.0" encoding="utf-8"?>
<!-- Generator: Adobe Illustrator 22.0.1, SVG Export Plug-In . SVG Version: 6.00 Build 0)  -->
<svg version="1.1" xmlns="http://www.w3.org/2000/svg" xmlns:xlink="http://www.w3.org/1999/xlink" x="0px" y="0px"
	 viewBox="0 0 60.5 39.7" style="enable-background:new 0 0 60.5 39.7;" xml:space="preserve">
<style type="text/css">
	.st0{fill:#010101;}
</style>
<g>
	<rect x="51.4" y="19.4" class="st0" width="5.4" height="19.7"/>
	<path class="st0" d="M47.5,19.4l-4.3,0c0,0,1.4-1.1,2-1.9c-0.2-0.2-0.4-0.4-0.7-0.7c-0.4,0.4-0.8,0.6-1.1,0.8
		c-0.3,0.2-0.6,0.3-1,0.4c-0.2,0-0.6,0.1-1.2,0.1l-0.7-0.3c-0.3-0.1-0.6-0.4-1-0.7c-0.3-0.3-0.6-0.7-0.8-1.1
		c-0.2-0.4-0.4-0.9-0.5-1.5c-0.1-0.6-0.2-1.1-0.2-1.6c0-0.1,7-0.2,7-0.2s-0.1-1.4-0.3-1.9c-0.2-0.5-0.4-1-0.7-1.4
		c-0.3-0.4-0.6-0.8-1.1-1.1C42.9,8,42.5,7.8,42,7.7c-0.5-0.1-1.1-0.2-1.8-0.2c-0.3,0-0.8,0.1-1.3,0.3c-0.4,0.1-0.9,0.4-1.4,0.9
		c-0.5,0.4-1,1.1-1.4,1.9c-0.2,0.3-0.3,0.8-0.6,1.6c-0.1,0.7-0.2,1.4-0.2,2.3c0,0.4,0.1,1,0.3,1.8c0.2,0.6,0.4,1.1,0.7,1.6
		c0.3,0.5,1.5,1.6,1.5,1.6l-3.9,0c0,0,0-0.1,0-0.1c0-0.2,0-0.3-0.1-0.4c-0.1-0.1-0.3-0.1-0.7-0.2c-0.4,0-0.6-0.1-0.8-0.1
		c-0.1-0.1-0.3-0.2-0.4-0.3c-0.4-0.7-0.3-6.4-0.3-6.4s0-0.7,0.3-1.2c0.1-0.3,0.3-0.5,0.5-0.5l0.1,0c0.1,0,0.3,0.1,0.5,0.3
		c0.4,0.3,0.7,0.5,1.1,0.5c0.4,0,0.7-0.2,0.9-0.5c0.2-0.4,0.4-0.8,0.4-1.2c0-0.5-0.2-0.9-0.5-1.2c-0.3-0.3-0.7-0.5-1.1-0.5
		c-0.3,0-0.7,0.1-0.9,0.4c-0.4,0.4-0.6,0.6-0.6,0.7c-0.1,0.2-0.7,1.4-0.7,1.4l0-3l-0.8,0c-0.1,0.1-0.2,0.3-0.3,0.5
		c-0.2,0.4-0.6,0.8-1.1,1.2c-0.5,0.4-1,0.6-1.6,0.7l0,0.5c0,0.2,0.1,0.3,0.3,0.3c0.3,0.1,0.6,0.2,0.8,0.3c0.1,0.1,0.2,0.4,0.2,0.4
		s0.2,7,0,7.3c-0.1,0.2-0.8,0.5-1.2,0.6c-0.2,0.1-0.3,0.1-0.4,0.2c0,0.1,0,0.3,0,0.3h-2.8c0.1-0.1,0.2-0.1,0.3-0.1
		c0.8-0.6,1.5-1.5,2-2.7c0.3-0.8,0.5-1.8,0.5-3.1c0-0.7-0.1-1.4-0.4-2.2c-0.3-0.8-0.6-1.5-1.1-2.1c-0.9-1.2-2.2-1.8-3.9-1.8
		c-0.8,0-1.4,0.1-2,0.3c-0.5,0.2-1.1,0.5-1.6,1c-0.4,0.3-0.7,0.7-1,1.2c-0.3,0.5-0.5,1.1-0.7,1.7c-0.2,0.7-0.3,1.3-0.3,1.9
		c0,1.3,0.2,2.3,0.6,3.2c0.4,0.9,1,1.6,1.9,2.3c0.1,0.1,0.4,0.3,0.4,0.3l-5.2,0l1.1-0.7l0.7-4.1l-1.2,0.1c0,0-1.5,2.3-2.4,3
		c-0.8,0.7-1.7,1-2.5,1c-0.8,0-1.5-0.2-2.2-0.7c-0.5-0.3-1-0.7-1.3-1.3C4.3,13.1,4.5,6.4,6.6,3.9c0.9-1.1,1.8-1.8,3-1.8
		c1,0,1.9,0.3,2.7,0.9s2.4,2.8,2.4,2.8h1.1l-0.9-4.4c0,0-1.6-0.4-2.4-0.5c-0.9-0.1-1.8-0.2-2.8-0.2c-2.4,0-4.4,0.9-6,2.8
		c-1.6,1.9-2.4,4.3-2.4,7.1c0,1.2,0.1,2.3,0.4,3.2c0.3,1,0.6,1.8,1.2,2.7C3.4,17.3,4.1,18,5,18.7c0.4,0.3,0.8,0.5,1.3,0.7H0.5v19.7
		h5.4v-15h2.7v15h5.4v-15h2.7v15H22l0-17.8c0-0.5-0.2-0.9-0.5-1.2c0.2,0,0.3,0,0.5,0c0.7,0,1.4-0.2,2-0.4v19.4h5.4V19.7l2.1,0v4.5
		H44v10.2h-7.1v-7.5h-5.4v12.3h15.9c1,0,1.9-0.8,1.9-1.9l0-15.9c0-0.5-0.2-1-0.5-1.3C48.5,19.6,48,19.4,47.5,19.4z M39,9.3
		c0.4-0.6,0.9-0.9,1.4-0.9c0.4,0,0.7,0.1,1.1,0.4c0.4,0.3,0.6,0.7,0.8,1.2c0.2,0.5,0.3,1,0.3,1.6c-0.1,0-0.3,0-0.3,0
		c-0.1,0-0.3,0-0.5,0c-0.3,0-0.6,0-0.7,0l-2.7,0C38.3,10.6,38.6,9.8,39,9.3z M22.1,19.2c-0.5,0-0.9-0.1-1.3-0.3
		c-0.4-0.2-0.6-0.5-0.8-0.8c-0.2-0.5-0.4-1-0.5-1.7c0-0.2-0.1-0.9-0.2-2.1c0-1.7,0.1-2.8,0.2-3.4c0.2-0.8,0.4-1.4,0.8-1.8
		c0.4-0.4,0.9-0.6,1.5-0.6c0.8,0,1.4,0.4,1.9,1.1c0.5,0.7,0.7,2,0.7,3.7c0,1.4-0.1,2.5-0.2,3.1c-0.2,1-0.5,1.7-0.9,2.1
		C23.1,18.9,22.7,19.2,22.1,19.2z"/>
	<path class="st0" d="M56.8,3.9c-0.7,0-1.5,0.5-2,1c-0.4,0.5-0.8,1.3-0.7,2.1c0.8,0.1,1.6-0.4,2-1C56.6,5.5,56.9,4.7,56.8,3.9z"/>
	<path class="st0" d="M57.9,11.2c0-1.7,1.4-2.6,1.5-2.6c-0.8-1.2-2.1-1.3-2.5-1.4c-1.1-0.1-2.1,0.6-2.6,0.6c-0.5,0-1.4-0.6-2.3-0.6
		c-1.2,0-2.2,0.7-2.8,1.7c-1.2,2.1-0.3,5.2,0.9,6.9c0.6,0.8,1.3,1.8,2.2,1.7c0.9,0,1.2-0.6,2.2-0.6c1,0,1.3,0.6,2.3,0.5
		c0.9,0,1.5-0.8,2.1-1.7c0.7-1,0.9-1.9,0.9-1.9C59.7,14,57.9,13.3,57.9,11.2z"/>
</g>
</svg>
